<?xml version="1.0" encoding="utf-8"?><svg version="1.1" id="Layer_1" xmlns="http://www.w3.org/2000/svg" xmlns:xlink="http://www.w3.org/1999/xlink" x="0px" y="0px" viewBox="0 0 122.88 122.88" style="enable-background:new 0 0 122.88 122.88" xml:space="preserve"><style type="text/css">.st0{fill-rule:evenodd;clip-rule:evenodd;}</style><g><path class="st0" d="M61.44,0c33.93,0,61.44,27.51,61.44,61.44c0,33.93-27.51,61.44-61.44,61.44C27.51,122.88,0,95.37,0,61.44 C0,27.51,27.51,0,61.44,0L61.44,0z M78.13,25.66c0.38-1.81,2.15-2.97,3.95-2.59c1.81,0.38,2.97,2.15,2.59,3.95L80.85,45.4h8.48 c1.85,0,3.35,1.5,3.35,3.35c0,1.85-1.5,3.35-3.35,3.35h-9.88l-4.21,20.24h14.09c1.85,0,3.35,1.5,3.35,3.35 c0,1.85-1.5,3.35-3.35,3.35H73.86l-3.78,18.18c-0.38,1.81-2.15,2.97-3.95,2.59c-1.81-0.38-2.97-2.15-2.59-3.95l3.5-16.82h-18 l-3.76,18.09c-0.38,1.81-2.15,2.97-3.95,2.59c-1.81-0.38-2.97-2.15-2.59-3.95l3.48-16.73h-8.66c-1.85,0-3.35-1.5-3.35-3.35 c0-1.85,1.5-3.35,3.35-3.35h10.05L47.8,52.1H33.54c-1.85,0-3.35-1.5-3.35-3.35c0-1.85,1.5-3.35,3.35-3.35H49.2l4.1-19.7 c0.38-1.81,2.15-2.97,3.95-2.59c1.81,0.38,2.97,2.15,2.59,3.95L56.02,45.4h18L78.13,25.66L78.13,25.66z M68.42,72.34l4.21-20.24 h-18l-4.21,20.24H68.42L68.42,72.34z"/></g></svg>